<svg xmlns="http://www.w3.org/2000/svg" width="109" height="16" fill="none"><g clip-path="url(#a)"><path fill="#fff" d="M14.012 0q-.306.545-.554 1.122a16.2 16.2 0 0 0-4.789 0Q8.423.545 8.114 0c-1.489.254-2.94.7-4.317 1.33C1.07 5.373.331 9.31.698 13.194a17.4 17.4 0 0 0 5.293 2.657c.43-.575.81-1.188 1.135-1.827a11.5 11.5 0 0 1-1.785-.85c.15-.109.296-.222.438-.33a12.43 12.43 0 0 0 10.582 0c.142.117.288.23.438.33q-.857.505-1.79.855c.326.638.705 1.251 1.135 1.826a17.3 17.3 0 0 0 5.293-2.652c.434-4.505-.742-8.41-3.108-11.867A17.2 17.2 0 0 0 14.017.008zM7.593 10.803c-1.03 0-1.885-.934-1.885-2.09s.821-2.093 1.88-2.093c1.06 0 1.903.942 1.886 2.094-.017 1.15-.83 2.09-1.881 2.09m6.95 0c-1.035 0-1.882-.934-1.882-2.09s.822-2.093 1.881-2.093 1.898.942 1.881 2.094c-.016 1.15-.83 2.09-1.88 2.09m27.121-7.908q-1.556-.7-3.808-.701h-6.224v11.175h5.778q2.44 0 4.091-.751a5.46 5.46 0 0 0 2.462-2.036c.538-.86.817-1.856.804-2.87a5.34 5.34 0 0 0-.775-2.865 5.1 5.1 0 0 0-2.328-1.956zM39.68 9.769q-.813.758-2.332.759h-1.723v-5.49h1.948c.976 0 1.71.247 2.198.727.497.517.76 1.217.726 1.94a2.7 2.7 0 0 1-.813 2.068zm21.177-1.235q.761.682.767 2.002a2.64 2.64 0 0 1-1.272 2.307c-.838.563-2.04.847-3.6.843-.897 0-1.79-.113-2.657-.334a8.5 8.5 0 0 1-2.331-.972V9.731a6.4 6.4 0 0 0 2.098.997c.826.25 1.685.384 2.548.388.296.017.597-.037.872-.15.196-.1.292-.23.292-.359a.55.55 0 0 0-.159-.4 1.43 1.43 0 0 0-.621-.271l-1.915-.43q-1.647-.382-2.336-1.06a2.37 2.37 0 0 1-.684-1.78 2.37 2.37 0 0 1 .605-1.61 3.9 3.9 0 0 1 1.723-1.06 8.2 8.2 0 0 1 2.62-.375 9.7 9.7 0 0 1 2.456.287c.65.155 1.272.4 1.852.734V7.15a6.9 6.9 0 0 0-1.73-.709 7.9 7.9 0 0 0-2.02-.267q-1.5 0-1.501.51a.39.39 0 0 0 .23.358q.411.176.85.246l1.598.288c1.034.183 1.81.5 2.319.96zm10.595 1.844a6 6 0 0 0 1.33-.567v2.828a7.8 7.8 0 0 1-4.071 1.055 7.5 7.5 0 0 1-3.32-.676 4.8 4.8 0 0 1-2.07-1.823 4.9 4.9 0 0 1-.683-2.586 4.73 4.73 0 0 1 .717-2.57 4.83 4.83 0 0 1 2.106-1.776 7.8 7.8 0 0 1 3.321-.647q2.394-.001 3.975 1.006v2.924c-.4-.272-.838-.48-1.302-.622a5.2 5.2 0 0 0-1.597-.238q-1.484 0-2.323.543a1.634 1.634 0 0 0-.025 2.836q.814.55 2.36.55c.534 0 1.064-.075 1.573-.229zm11.816-6.12a8.7 8.7 0 0 0-6.544 0 4.9 4.9 0 0 0-2.098 1.765 4.6 4.6 0 0 0-.726 2.565 4.8 4.8 0 0 0 .726 2.603 4.94 4.94 0 0 0 2.11 1.823 8.3 8.3 0 0 0 6.528-.004 4.9 4.9 0 0 0 2.098-1.823 4.86 4.86 0 0 0 .717-2.603 4.65 4.65 0 0 0-.717-2.57 4.84 4.84 0 0 0-2.09-1.755zm-1.685 5.924a2.13 2.13 0 0 1-1.598.58 2.2 2.2 0 0 1-1.597-.58 2.08 2.08 0 0 1-.58-1.544 2.03 2.03 0 0 1 .58-1.522 2.2 2.2 0 0 1 1.597-.567 2.19 2.19 0 0 1 1.598.567c.4.405.613.955.584 1.522a2.08 2.08 0 0 1-.584 1.544m12.634-6.365a2.66 2.66 0 0 1 1.452.383v3.454a2.88 2.88 0 0 0-1.581-.4q-1.276 0-1.965.775-.682.777-.683 2.403v2.937h-3.913v-9.34h3.83v2.966q.316-1.626 1.03-2.403a2.37 2.37 0 0 1 1.822-.775zm10.537-1.944v4.163q-.959-2.428-3.75-2.428a4.54 4.54 0 0 0-2.42.655 4.4 4.4 0 0 0-1.643 1.823 5.64 5.64 0 0 0-.563 2.632 5.84 5.84 0 0 0 .534 2.548 4.24 4.24 0 0 0 1.535 1.773 4.17 4.17 0 0 0 2.315.647 4.7 4.7 0 0 0 2.486-.622 3.72 3.72 0 0 0 1.51-1.798v2.098h3.913V1.873h-3.917m-.576 8.255c-.433.4-1.009.604-1.597.571a2.15 2.15 0 0 1-1.565-.571c-.4-.388-.617-.93-.596-1.49a1.95 1.95 0 0 1 .592-1.476 2.51 2.51 0 0 1 3.166 0c.4.375.618.905.601 1.456a2 2 0 0 1-.601 1.51M50.015 3.274c0 .968-.872 1.752-1.948 1.752s-1.948-.784-1.948-1.752c0-.967.872-1.752 1.948-1.752s1.948.785 1.948 1.752m0 2.958v7.187h-3.9V6.232a5.02 5.02 0 0 0 3.9 0"/></g><defs><clipPath id="a"><path fill="currentColor" d="M0 0h109v15.854H0z"/></clipPath></defs></svg>
