<svg width="24" height="24" viewBox="0 0 32 32" fill="none" xmlns="http://www.w3.org/2000/svg">
  <path d="M16 5.333c-5.867 0-10.667 4.8-10.667 10.667 0 5.866 4.8 10.666 10.667 10.666S26.667 21.866 26.667 16 21.867 5.333 16 5.333M20.933 20.8c-.266.266-.533.4-.933.266-2.533-1.6-5.6-1.866-9.333-1.066-.4.133-.667-.134-.8-.534-.134-.4.133-.666.533-.8 4-.933 7.6-.533 10.4 1.2.267.134.267.534.133.934m1.2-2.934c-.266.4-.8.534-1.066.267-2.934-1.733-7.2-2.267-10.667-1.2-.4 0-.8-.133-.933-.667-.134-.4.133-.8.533-.933 3.867-1.2 8.667-.533 12 1.467.267.133.4.666.133 1.066m.134-3.066c-3.467-2-9.067-2.267-12.4-1.2-.534.133-1.067-.134-1.2-.667-.134-.533.133-1.067.666-1.2 3.734-1.067 10-.933 14 1.467.534.266.667.933.4 1.333-.266.4-.933.533-1.466.267" fill="currentColor"/>
</svg>
