<svg width="32" height="32" viewBox="0 0 32 32" fill="none" xmlns="http://www.w3.org/2000/svg">
  <g clip-path="url(#a)">
    <path d="M9.191 6.424c2.746 2.068 5.7 6.261 6.784 8.511v5.944c0-.127-.049.016-.154.324-.566 1.668-2.776 8.175-7.83 2.973-2.66-2.74-1.428-5.479 3.415-6.306-2.77.473-5.886-.308-6.74-3.373C4.418 13.615 4 8.185 4 7.45c0-3.674 3.21-2.519 5.191-1.027m13.567 0c-2.745 2.068-5.7 6.261-6.783 8.511v5.944c0-.127.048.016.153.324.566 1.668 2.776 8.175 7.83 2.973 2.66-2.74 1.429-5.479-3.415-6.306 2.771.473 5.886-.308 6.741-3.373.246-.882.666-6.312.666-7.046 0-3.674-3.21-2.519-5.192-1.027" fill="#fff"/>
  </g>
  <defs>
    <clipPath id="a">
      <path fill="#fff" d="M4 5h23.95v21.33H4z"/>
    </clipPath>
  </defs>
</svg>
