<svg viewBox="0 0 32 32" fill="none" xmlns="http://www.w3.org/2000/svg">
  <path d="M5.333 20A2.667 2.667 0 0 1 8 17.333h1.333A2.667 2.667 0 0 1 12 20v4a2.667 2.667 0 0 1-2.667 2.666H8A2.667 2.667 0 0 1 5.333 24zM20 20a2.667 2.667 0 0 1 2.667-2.667H24A2.667 2.667 0 0 1 26.667 20v4A2.667 2.667 0 0 1 24 26.666h-1.333A2.666 2.666 0 0 1 20 24z" stroke="currentColor" stroke-width="2.667" stroke-linecap="round" stroke-linejoin="round"/>
  <path d="M5.333 20v-4a10.667 10.667 0 1 1 21.334 0v4" stroke="currentColor" stroke-width="2.667" stroke-linecap="round" stroke-linejoin="round"/>
</svg>
