<svg viewBox="0 0 32 32" fill="none" xmlns="http://www.w3.org/2000/svg">
  <path d="M9.334 22.866q-2.856 0-4.86-2.005Q2.467 18.855 2.467 16t2.005-4.865 4.86-2.01h4.444q.48 0 .808.333t.328.816-.328.807a1.1 1.1 0 0 1-.808.323H9.334q-1.92 0-3.258 1.335-1.337 1.335-1.337 3.252t1.337 3.26 3.258 1.343h4.443q.48 0 .808.329.328.33.328.812t-.328.807a1.1 1.1 0 0 1-.808.323zm2.412-5.818q-.444 0-.746-.3a1.02 1.02 0 0 1-.302-.754q0-.454.298-.748.299-.294.75-.294h8.509q.444 0 .746.3.302.299.302.754 0 .454-.298.748a1.02 1.02 0 0 1-.75.294zm6.485 5.818q-.488 0-.816-.329a1.1 1.1 0 0 1-.327-.812q0-.484.327-.807.328-.323.816-.323h4.436q1.92 0 3.258-1.335 1.337-1.335 1.337-3.252t-1.337-3.26-3.258-1.343h-4.436q-.488 0-.816-.329a1.1 1.1 0 0 1-.327-.812q0-.485.327-.81.328-.328.816-.328h4.436q2.855 0 4.865 2.01t2.01 4.863q0 2.856-2.01 4.861t-4.865 2.006z" fill="currentColor"/>
</svg>
