<svg width="32" height="32" viewBox="0 0 32 32" fill="none" xmlns="http://www.w3.org/2000/svg">
  <path d="M21.527 11.802a1.28 1.28 0 1 1 0-2.56 1.28 1.28 0 0 1 0 2.56M16 21.333A5.34 5.34 0 0 1 10.667 16 5.34 5.34 0 0 1 16 10.666 5.34 5.34 0 0 1 21.334 16 5.34 5.34 0 0 1 16 21.333m0-8A2.67 2.67 0 0 0 13.334 16 2.67 2.67 0 0 0 16 18.666 2.67 2.67 0 0 0 18.667 16 2.67 2.67 0 0 0 16 13.333m5.334 13.333H10.667c-2.741 0-5.333-2.592-5.333-5.333V10.666c0-2.741 2.592-5.333 5.333-5.333h10.667c2.74 0 5.333 2.592 5.333 5.333v10.667c0 2.741-2.592 5.333-5.334 5.333M10.667 8C9.42 8 8 9.42 8 10.666v10.667C8 22.603 9.396 24 10.667 24h10.667C22.58 24 24 22.58 24 21.333V10.666C24 9.42 22.58 8 21.334 8z" fill="#fff"/>
</svg>
