<svg width="109" height="34" viewBox="0 0 109 34" fill="none" xmlns="http://www.w3.org/2000/svg">
  <path d="M32.41 12.423c0-.494.364-.814.931-.814h2.706c2.459 0 4.117 1.352 4.117 3.33 0 1.98-1.644 3.39-4.117 3.39h-.378c-.946 0-1.426.495-1.426 1.28v2.212c0 .625-.363 1.018-.916 1.018s-.917-.393-.917-1.018zm1.833 2.808c0 .989.51 1.469 1.47 1.469h.232c1.353 0 2.342-.553 2.342-1.76s-.989-1.76-2.342-1.76h-.233c-.96 0-1.469.465-1.469 1.469v.596zm5.92 6.75c0 .523.365.858.917.858.553 0 .699-.233.888-.727l.334-.888c.262-.713.742-1.033 1.251-1.033h2.982c.524 0 .99.335 1.252 1.033l.334.887c.19.495.524.728.887.728.553 0 .917-.35.917-.858 0-.51-.03-.32-.087-.495l-3.564-9.281a1.29 1.29 0 0 0-1.208-.844c-.48 0-.989.277-1.207.844l-3.564 9.281a1.6 1.6 0 0 0-.087.495zm3.478-4.219c0-.175.043-.335.13-.567l.67-1.877c.13-.364.349-.538.596-.538s.466.174.596.538l.67 1.877c.072.232.13.392.13.567 0 .465-.261.8-.974.8h-.844c-.712 0-.974-.335-.974-.8m5.673-5.31c0-.509.364-.843.946-.843h7.23c.581 0 .945.349.945.843 0 .495-.364.844-.946.844h-1.207c-.96 0-1.484.495-1.484 1.6v6.895c0 .64-.364 1.033-.93 1.033-.568 0-.932-.393-.932-1.033v-6.895c0-1.12-.524-1.6-1.484-1.6h-1.207c-.582 0-.946-.35-.946-.844zm10.823 9.369c0 .625.364 1.018.916 1.018.553 0 .917-.393.917-1.018v-2.503c0-.712.407-1.003.916-1.003h.131c.335 0 .655.203.858.509l2.386 3.506c.218.334.51.523.858.523.35 0 .844-.392.844-.858s-.058-.393-.204-.596l-1.585-2.226c-.19-.262-.262-.495-.262-.67 0-.392.35-.668.756-.974.742-.553 1.542-1.28 1.542-2.662s-1.512-3.244-4-3.244h-3.157c-.567 0-.916.335-.916.815v9.397zm1.818-6.736v-.465c0-1.018.538-1.44 1.353-1.44h.786c1.352 0 2.21.509 2.21 1.673 0 1.163-.916 1.702-2.269 1.702h-.741c-.815 0-1.353-.422-1.353-1.44zm8.568 6.706v-9.368c0-.494.35-.814.917-.814h5.95c.567 0 .916.334.916.814s-.35.815-.916.815h-3.754c-.742 0-1.28.436-1.28 1.28v.35c0 .828.538 1.28 1.28 1.28h2.91c.567 0 .916.334.916.814s-.349.814-.916.814h-2.793c-.742 0-1.382.451-1.382 1.383v.436c0 .93.64 1.382 1.382 1.382h3.651c.567 0 .916.334.916.814s-.349.815-.916.815h-5.95c-.567 0-.916-.335-.916-.815zm8.86-4.684c0-3.39 2.545-5.731 5.527-5.731s5.528 2.342 5.528 5.731c0 3.39-2.546 5.732-5.528 5.732s-5.528-2.342-5.528-5.732m2.065 0c0 2.386 1.411 3.913 3.462 3.913s3.462-1.527 3.462-3.913c0-2.385-1.41-3.913-3.462-3.913-2.05 0-3.462 1.513-3.462 3.913m11.187 4.714c0 .625.363 1.018.916 1.018s.916-.393.916-1.018v-4.815c0-.582.35-.859.713-.859.364 0 .524.16.699.437l3.025 5.047c.408.699.786 1.208 1.557 1.208s1.28-.538 1.28-1.397v-9.048c0-.625-.364-1.018-.916-1.018-.553 0-.917.393-.917 1.018v4.815c0 .582-.349.858-.713.858-.363 0-.523-.16-.698-.436l-3.026-5.048c-.407-.698-.785-1.207-1.556-1.207s-1.28.538-1.28 1.396zm-68.021-9.092c0-2.43-1.89-4.408-4.102-5.12-2.75-.888-6.371-.757-9.004.48-3.186 1.497-4.175 4.785-4.219 8.073-.03 2.69.233 9.804 4.248 9.848 2.982.044 3.418-3.797 4.8-5.644.975-1.31 2.24-1.688 3.797-2.066 2.677-.655 4.495-2.764 4.48-5.557z" fill="#fff"/>
</svg>
