<svg width="76" height="50" viewBox="0 0 76 50" fill="none" xmlns="http://www.w3.org/2000/svg">
  <g clip-path="url(#a)">
    <path d="M4.827 8.727 3.081 24.341l4.512 2.629h7.415l-1.864 21.028 60.22-5.551-2.02-21.538-2.12-3.531-12.063 1.157-2.687-6.532-1.138-2.04L5.317 6.59z" fill="#411744"/>
    <path d="m61.38 44.016 3.806 3.962-8.317-3.373M41.72 29.756l-2.412.098.255 3.864 2.412-.157c1.57-.098 2.295-.785 2.197-1.903l-.039-.333c-.098-1.06-.843-1.648-2.452-1.57zm19.668-8.452-.137-.745-2.433-.02.118.745zm-46.191-9.142-2.904-.137-.215 3.766L15 15.89c1.903.059 2.864-.55 2.904-1.628v-.333c.039-1.02-.785-1.668-2.707-1.746z" fill="#e77deb"/>
    <path d="m75.649 40.487-4.806-21.774c-.157-.726-.883-1.314-1.628-1.353l-1.393-.04-9.611-.313c-.883-.02-1.687-.687-1.785-1.472l-.706-5.158c-.099-.746-.883-1.393-1.766-1.452l-1.608-.118L27.14 6.846 12.958 0l5.963 6.199 4.158.313L4.955 5.1c-1.432-.118-2.688.55-2.805 1.49l-.197 1.766-1.726 16.36-.235 2.098c-.118 1.158 1.118 2.04 2.726 2.001l8.612-.255c1.47-.039 2.628.805 2.57 1.903l-.668 15.163-.098 2.354c-.059 1.294 1.177 2.177 2.746 1.98l38.996-5.1 12.436 5.003-5.649-5.905-4.668.608 16.026-2.098.333-.04 1.197-.156c.804-.099 1.294-.922 1.098-1.805zm-7.63-20.558.137.707h.726l.588 2.883h-1.49l-.57-2.883h-2.255l.549 2.922h-1.55l-.667-3.687zm-10.142-.156 4.041.058.137.746h.785l.255 1.49h-4.04l.117.765h3.256l.137.746-4.1.04-.117-.785h-.843l-.353-2.315h.843zm-13.534-8.75 6.08 7.73-.902-7.415 3.217.196 1.726 12.672-3.295.039-6.356-8.101.785 8.16-3.707.039-1.08-13.535zm-12.378-1.02c4.1.256 7.003 2.316 7.278 6.18l.157 2.334c.294 4.178-2.452 6.199-6.905 6.257-4.904.06-7.886-2.02-7.905-6.551v-2.511c0-4.139 2.981-5.963 7.375-5.688zM17.116 23.618l.079-2.55c.039-1.451-.648-1.962-2.747-2l-2.55-.04-.313 5.65-5.552.058L7.328 8.73l8.14.51c5.316.333 7.356 2.04 7.337 4.649v.353c0 1.746-1 2.825-2.786 3.393 1.57.53 2.354 1.51 2.335 3.335v2.707c-.02.412.137.726.47.902l-5.257.06c-.333-.158-.47-.55-.45-1.001zm1.746 21.577.392-17.928 13.32-.314.117 3.236-8.454.334v3.119l7.748-.432.117 3.472-7.865.589v3.354l9.082-.824.137 3.786zm26.246-2.883c-.295-.138-.451-.51-.49-.981L44.4 38.72c-.137-1.49-.765-1.961-2.49-1.824l-2.1.157.393 5.786-4.551.51-.785-16.457 6.768-.157c4.433-.098 6.316 1.471 6.59 4.159l.04.352c.196 1.805-.51 2.982-1.923 3.708 1.354.412 2.119 1.353 2.315 3.217l.294 2.766c.04.431.216.725.51.882l-4.335.471zm5.727-.628-.392-3.55 2.59-.236-1.02-8.297-2.511.098-.354-3.158 8.357-.196.45 3-2.333.099 1.118 8.101 2.412-.216.51 3.374-8.807.961zm18.36-2.02-3.962-6.12-1.157 2.138.765 4.472-3.433.373-2.216-14.202 3.275-.078.864 5.06 2.942-5.158 3.59-.079-2.727 5.002 5.59 8.219-3.53.392z" fill="#e77deb"/>
    <path d="M32.403 21.479c1.981 0 2.727-1.06 2.629-3.256l-.098-2.04c-.118-2.139-.942-3.198-2.845-3.296-1.961-.098-2.765.961-2.707 3.1l.06 2.118c.058 2.236.94 3.354 2.98 3.374z" fill="#e77deb"/>
  </g>
  <defs>
    <clipPath id="a">
      <path fill="#fff" d="M0 0h75.696v50H0z"/>
    </clipPath>
  </defs>
</svg>
